<svg width="60" height="43" viewBox="0 0 60 43" fill="none" xmlns="http://www.w3.org/2000/svg">
<path d="M0.828491 20.884C0.828491 29.4993 4.45082 42.0306 15.5136 42.0306C26.5764 42.0306 30.1987 29.4993 30.1987 20.884C30.1987 -5.74502 0.828491 -5.74502 0.828491 20.884ZM30.1987 20.884C30.1987 29.4993 33.8211 42.0306 44.8839 42.0306C55.9466 42.0306 59.569 29.4993 59.569 20.884C59.569 -5.74502 30.1987 -5.74502 30.1987 20.884Z" fill="#DDE8E3"/>
<path d="M1.61169 21.5693C1.61169 29.0098 3.96131 40.4642 13.3598 40.4642C22.7583 40.4642 25.1079 28.9119 25.1079 21.5693C25.01 -3.88491 1.61169 -3.88491 1.61169 21.5693ZM30.9819 21.5693C30.9819 29.0098 33.3316 40.4642 42.73 40.4642C52.1285 40.4642 54.4781 28.9119 54.4781 21.5693C54.3802 -3.88491 30.9819 -3.88491 30.9819 21.5693Z" fill="white"/>
<path d="M1.61169 21.6672C1.61169 27.737 5.91933 32.4362 11.1081 32.4362C16.3947 32.4362 20.6045 27.737 20.6045 21.6672C20.6045 6.78624 1.61169 6.78624 1.61169 21.6672ZM30.9819 21.6672C30.9819 27.737 35.2896 32.4362 40.4783 32.4362C45.765 32.4362 49.9747 27.737 49.9747 21.6672C49.9747 6.78624 30.9819 6.78624 30.9819 21.6672Z" fill="#493B30"/>
</svg>
