<svg width="85" height="86" viewBox="0 0 85 86" fill="none" xmlns="http://www.w3.org/2000/svg">
<path d="M42.397 81.7238C22.0026 81.7238 0 68.9316 0 40.8619C0 12.7922 22.0026 0 42.397 0C53.7272 0 64.1802 3.72801 71.9286 10.5261C80.3349 17.9822 84.7939 28.5083 84.7939 40.8619C84.7939 53.2155 80.3349 63.6686 71.9286 71.1246C64.1802 77.9227 53.6541 81.7238 42.397 81.7238Z" fill="url(#paint0_radial_592_17)"/>
<path d="M42.397 81.7238C22.0026 81.7238 0 68.9316 0 40.8619C0 12.7922 22.0026 0 42.397 0C53.7272 0 64.1802 3.72801 71.9286 10.5261C80.3349 17.9822 84.7939 28.5083 84.7939 40.8619C84.7939 53.2155 80.3349 63.6686 71.9286 71.1246C64.1802 77.9227 53.6541 81.7238 42.397 81.7238Z" fill="url(#paint1_linear_592_17)"/>
<path d="M77.4037 16.5714C81.2998 22.8578 83.332 30.3431 83.332 38.669C83.332 51.0226 78.873 61.4756 70.4667 68.9316C62.7183 75.7298 52.1921 79.5309 40.935 79.5309C27.7335 79.5309 13.8887 74.1582 5.71628 62.7621C13.5816 75.6713 28.3767 81.7238 42.397 81.7238C53.6541 81.7238 64.1802 77.9227 71.9286 71.1246C80.3349 63.6686 84.7939 53.2155 84.7939 40.8619C84.7939 31.5492 82.2574 23.2745 77.4037 16.5714Z" fill="#EB8F00"/>
<path d="M54.1658 44.8092C47.5869 46.2712 45.5402 46.125 42.8355 46.125H42.5432C39.8385 46.125 37.7918 46.2712 31.2129 44.8092C30.0434 44.5899 29.0931 46.0519 30.8474 47.3677C34.3562 49.9261 38.5228 50.7302 42.6894 50.7302C46.856 50.7302 51.0225 49.9261 54.5313 47.3677C56.2856 46.0519 55.3353 44.5899 54.1658 44.8092Z" fill="#422B0D"/>
<path d="M27.8504 35.1602C29.2027 35.1456 30.555 35.2918 31.8708 35.5988C32.5726 35.7816 33.3035 35.4453 33.6252 34.7948C34.1734 33.6544 34.4512 32.4044 34.4293 31.1398C34.4293 26.8271 31.6515 24.2686 28.5814 24.2686C25.5113 24.2686 22.7335 26.8271 22.7335 31.1398C22.7116 32.2729 22.9382 33.3913 23.3914 34.4293C23.6546 35.0652 24.3271 35.4307 24.9996 35.3064C25.8768 35.2333 26.827 35.1602 27.8504 35.1602Z" fill="#422B0D"/>
<path d="M57.5283 35.1602C56.176 35.1456 54.8237 35.2918 53.5079 35.5988C52.8062 35.767 52.0825 35.4307 51.7536 34.7948C51.2053 33.6544 50.9275 32.4044 50.9495 31.1398C50.9495 26.8271 53.7272 24.2686 56.7973 24.2686C59.8675 24.2686 62.6452 26.8271 62.6452 31.1398C62.6671 32.2729 62.4405 33.3913 61.9873 34.4293C61.7242 35.0652 61.0516 35.4307 60.3791 35.3064C59.502 35.2333 58.5517 35.1602 57.5283 35.1602Z" fill="#422B0D"/>
<path opacity="0.66" d="M43.0037 39.9555C43.0037 35.5696 42.4993 32.9965 38.6178 33.4351C35.767 33.7275 35.555 38.0988 35.555 42.4847C35.555 42.4847 35.3722 50.255 32.4483 56.7535C32.2144 57.0532 31.9805 57.3529 31.7685 57.6745C28.7349 62.2066 26.9513 67.6524 27.8504 73.1201C28.1209 75.4739 29.3197 77.623 31.1837 79.085C33.1793 80.7224 35.9497 81.3291 38.4935 81.5703C43.0037 81.9943 43.0037 43.7639 43.0037 39.9555Z" fill="url(#paint2_linear_592_17)"/>
<path d="M54.1658 44.8092C51.5269 45.4525 48.8369 45.8765 46.125 46.0811C45.9642 47.5577 45.9349 49.0416 46.0446 50.5255C49.1001 50.2258 52.024 49.1366 54.5313 47.3677C56.2856 46.0519 55.3354 44.5899 54.1658 44.8092Z" fill="#422B0D"/>
<path d="M46.1323 46.0519C45.6279 46.0519 45.1674 46.0519 44.7215 46.0957C44.5022 47.6016 44.4145 49.122 44.4583 50.6424C44.9919 50.6424 45.5256 50.562 46.0519 50.4963C45.9422 49.0124 45.9715 47.5285 46.1323 46.0519Z" fill="#422B0D"/>
<path d="M31.2129 44.8092C30.0434 44.5899 29.0931 46.0519 30.8474 47.3677C32.6237 48.6396 34.6339 49.5606 36.7611 50.0577C36.9438 48.5957 37.0535 47.1337 37.1266 45.8838C35.6354 45.701 33.7641 45.3794 31.2129 44.8092Z" fill="#422B0D"/>
<path d="M63.4273 63.5004C63.2738 62.9741 62.9814 62.499 62.5721 62.1335C61.2051 60.4741 58.9903 59.7724 56.9143 60.3426C56.9143 60.2768 56.8704 60.2037 56.8412 60.1452C57.3017 58.135 57.1043 56.0298 56.271 54.1438C55.2769 52.2652 53.3544 51.0664 51.2346 51.0006C49.5387 50.9056 47.8428 51.1103 46.22 51.6073C46.1688 51.41 46.1323 51.2126 46.1031 51.0079C46.1031 50.869 46.0592 50.7155 46.0446 50.5401C45.5183 50.6059 44.9847 50.6571 44.451 50.6863C44.3853 48.296 44.6265 45.9057 45.182 43.5811C46.7609 36.7026 43.8882 34.2319 43.2595 33.786C42.2435 33.172 41.0447 32.9307 39.8678 33.0989C37.017 33.3913 37.1631 35.5842 37.1631 39.9701C37.1631 39.9701 37.6529 49.3705 35.3942 56.7827C35.1529 57.0824 34.919 57.3821 34.707 57.7037C28.3475 67.2065 30.175 75.9052 34.1954 80.6566C36.6368 83.4343 40.0798 85.1156 43.7712 85.3349C46.8048 85.5249 50.5694 84.8963 53.274 82.5937C55.4085 81.1756 56.8704 78.9388 57.309 76.4169C57.426 75.3643 57.404 74.3043 57.2286 73.259V72.9447C57.4698 72.3234 57.6233 71.6728 57.6818 71.0149C58.5736 71.0441 59.4654 70.9199 60.3134 70.6348C61.4098 70.2328 62.3309 69.4579 62.9156 68.4418C63.4931 67.4477 63.7709 66.3001 63.7124 65.1524C63.7051 64.5896 63.6101 64.034 63.4273 63.5004ZM44.5607 52.1336C44.5607 51.7535 44.4803 51.2638 44.4657 50.6717C44.473 51.2638 44.5168 51.7535 44.5607 52.1336Z" fill="url(#paint3_radial_592_17)"/>
<path opacity="0.66" d="M46.3004 44.451C47.3823 35.4088 43.318 33.7641 43.1426 33.6837L43.2742 33.7714C43.9028 34.2173 46.7756 36.6953 45.1966 43.5665C44.9847 44.4729 44.8385 45.3282 44.7215 46.125C45.1674 46.125 45.6279 46.125 46.1323 46.0811C46.1762 45.5767 46.2273 45.0431 46.3004 44.451Z" fill="url(#paint4_linear_592_17)"/>
<path d="M63.4273 63.5004C63.2738 62.9741 62.9814 62.499 62.572 62.1335C62.572 62.1335 63.7197 65.591 61.7022 67.8863C60.8835 68.822 59.5092 69.4433 58.3981 68.9535C57.3748 68.5076 56.8485 67.4112 56.4537 66.3366C57.097 64.8673 57.3601 63.2665 57.2359 61.673C57.2066 61.1466 57.0751 60.635 56.8485 60.1598C57.309 58.1496 57.1116 56.0444 56.2783 54.1585C55.2842 52.2798 53.3617 51.081 51.2418 51.0152C49.5459 50.9202 47.8501 51.1249 46.2273 51.622C46.1761 51.4246 46.1396 51.2272 46.1103 51.0225C46.1103 50.8837 46.0665 50.7302 46.0519 50.5547C45.5255 50.6205 44.9919 50.6717 44.4583 50.7009C44.4583 51.293 44.5168 51.7755 44.5606 52.1629C42.492 52.8792 40.5329 53.8953 38.7567 55.1745C40.9057 54.5751 43.0329 53.9026 45.1966 53.3471C47.1849 52.8427 49.3413 52.2433 51.4173 52.3749C52.8354 52.3749 54.1804 53.0401 55.0283 54.1804C56.0005 55.5985 55.1818 57.4479 54.7432 58.2373C54.2242 58.018 53.676 57.8792 53.1204 57.828C50.9275 57.6014 48.5226 58.2154 46.3735 58.7563C44.2244 59.2973 41.8122 59.9405 39.9555 61.249C43.1499 60.4595 46.1396 59.7505 49.3924 59.2242C51.3222 58.9025 54.3485 58.7125 55.328 60.9785C56.059 62.6525 54.9406 64.7211 54.2535 65.7591C52.7623 65.401 51.198 65.4668 49.7433 65.9492C47.1703 66.6875 44.7068 67.7474 42.3969 69.0924C45.2405 68.4126 48.0621 67.5501 50.9494 67.0457C53.1936 66.6509 55.8763 67.2869 56.2271 69.9696C56.3952 72.5427 55.0941 74.9914 52.8646 76.2926C51.8559 76.9578 50.5401 76.9285 49.5606 76.2268C49.0123 75.8028 48.4933 74.6917 49.2974 74.2385C49.5606 74.0923 49.9041 74.0923 50.138 73.9023C50.4012 73.6611 50.4524 73.259 50.255 72.9593C50.043 72.6669 49.6702 72.5427 49.3267 72.645C48.9758 72.7693 48.6834 73.0324 48.5299 73.376C47.3238 75.9271 49.9407 78.2224 52.3895 77.6303C52.9231 77.4987 55.2403 76.6362 55.4669 78.1054C55.7812 80.1156 53.274 82.601 53.274 82.601C55.4084 81.1829 56.8704 78.9461 57.309 76.4169C57.4406 75.2912 57.3967 74.1581 57.192 73.047C57.4479 72.3965 57.616 71.7093 57.6818 71.0149C58.5736 71.0441 59.4654 70.9199 60.3133 70.6348C61.4098 70.2328 62.3308 69.4579 62.9156 68.4418C63.4931 67.4477 63.7709 66.3001 63.7124 65.1524C63.7051 64.5896 63.61 64.034 63.4273 63.5004Z" fill="url(#paint5_linear_592_17)"/>
<defs>
<radialGradient id="paint0_radial_592_17" cx="0" cy="0" r="1" gradientUnits="userSpaceOnUse" gradientTransform="translate(42.397 40.8619) scale(41.6365 41.6365)">
<stop offset="0.5" stop-color="#FDE030"/>
<stop offset="0.92" stop-color="#F7C02B"/>
<stop offset="1" stop-color="#F4A223"/>
</radialGradient>
<linearGradient id="paint1_linear_592_17" x1="42.397" y1="81.7238" x2="42.397" y2="0" gradientUnits="userSpaceOnUse">
<stop offset="0.16" stop-color="#F4A223"/>
<stop offset="0.33" stop-color="#F7C02B"/>
<stop offset="0.81" stop-color="#FDE030" stop-opacity="0"/>
</linearGradient>
<linearGradient id="paint2_linear_592_17" x1="35.3105" y1="82.4329" x2="35.3105" y2="27.9601" gradientUnits="userSpaceOnUse">
<stop stop-color="#BF360C"/>
<stop offset="1" stop-color="#BF360C" stop-opacity="0.2"/>
</linearGradient>
<radialGradient id="paint3_radial_592_17" cx="0" cy="0" r="1" gradientUnits="userSpaceOnUse" gradientTransform="translate(47.1314 59.2071) scale(21.9031 21.9031)">
<stop offset="0.41" stop-color="#FFF176"/>
<stop offset="1" stop-color="#FFC400"/>
</radialGradient>
<linearGradient id="paint4_linear_592_17" x1="44.8129" y1="52.6892" x2="44.8129" y2="34.3927" gradientUnits="userSpaceOnUse">
<stop stop-color="#BF360C"/>
<stop offset="1" stop-color="#BF360C" stop-opacity="0.2"/>
</linearGradient>
<linearGradient id="paint5_linear_592_17" x1="59.8382" y1="66.5778" x2="-118.595" y2="66.5778" gradientUnits="userSpaceOnUse">
<stop stop-color="#DA6727"/>
<stop offset="0.02" stop-color="#E27C1E"/>
<stop offset="0.06" stop-color="#ED9613"/>
<stop offset="0.1" stop-color="#F5AB0B"/>
<stop offset="0.15" stop-color="#FBB905"/>
<stop offset="0.21" stop-color="#FEC101"/>
<stop offset="0.3" stop-color="#FFC400"/>
</linearGradient>
</defs>
</svg>
